<svg width="20" height="14" viewBox="0 0 20 14" fill="none" xmlns="http://www.w3.org/2000/svg">
<path fill-rule="evenodd" clip-rule="evenodd" d="M19.1797 12.76C19.1797 13.257 18.7767 13.66 18.2797 13.66L1.71969 13.66C1.22263 13.66 0.819689 13.257 0.819689 12.76C0.819689 12.2629 1.22263 11.86 1.71969 11.86L18.2797 11.86C18.7767 11.86 19.1797 12.2629 19.1797 12.76Z" fill="black"/>
<path fill-rule="evenodd" clip-rule="evenodd" d="M19.1797 6.99999C19.1797 7.49705 18.7767 7.89999 18.2797 7.89999L1.71969 7.89999C1.22263 7.89999 0.819689 7.49705 0.819689 6.99999C0.819689 6.50294 1.22263 6.09999 1.71969 6.09999L18.2797 6.09999C18.7767 6.09999 19.1797 6.50294 19.1797 6.99999Z" fill="black"/>
<path fill-rule="evenodd" clip-rule="evenodd" d="M19.1797 1.24C19.1797 1.73706 18.7767 2.14 18.2797 2.14L1.71969 2.14C1.22263 2.14 0.819689 1.73706 0.819689 1.24C0.819689 0.742943 1.22263 0.339999 1.71969 0.339999L18.2797 0.339999C18.7767 0.339999 19.1797 0.742943 19.1797 1.24Z" fill="black"/>
</svg>
