<svg width="26" height="23" viewBox="0 0 26 23" fill="none" xmlns="http://www.w3.org/2000/svg">
<path d="M23.6966 9.88873H5.54531L13.4753 2.56873C14.1091 1.98373 14.1091 1.02373 13.4753 0.438728C13.1717 0.157849 12.7595 0 12.3297 0C11.8998 0 11.4877 0.157849 11.1841 0.438728L0.475312 10.3237C-0.158437 10.9087 -0.158437 11.8537 0.475312 12.4387L11.1841 22.3237C11.8178 22.9087 12.8416 22.9087 13.4753 22.3237C14.1091 21.7387 14.1091 20.7937 13.4753 20.2087L5.54531 12.8887H23.6966C24.5903 12.8887 25.3216 12.2137 25.3216 11.3887C25.3216 10.5637 24.5903 9.88873 23.6966 9.88873Z" fill="#BBC8D4"/>
</svg>
