<svg width="26" height="23" viewBox="0 0 26 23" fill="none" xmlns="http://www.w3.org/2000/svg">
<path d="M1.625 12.8887H19.7763L11.8462 20.2087C11.2125 20.7937 11.2125 21.7537 11.8462 22.3387C12.48 22.9237 13.5037 22.9237 14.1375 22.3387L24.8463 12.4537C25.48 11.8687 25.48 10.9237 24.8463 10.3387L14.1538 0.438728C13.8501 0.157849 13.438 0 13.0081 0C12.5783 0 12.1661 0.157849 11.8625 0.438728C11.2288 1.02373 11.2288 1.96873 11.8625 2.55373L19.7763 9.88873H1.625C0.73125 9.88873 0 10.5637 0 11.3887C0 12.2137 0.73125 12.8887 1.625 12.8887Z" fill="#553D67"/>
</svg>
